<?xml version="1.0" encoding="UTF-8"?>
<svg version="1.1" xmlns="http://www.w3.org/2000/svg" width="500" height="500">
<path d="M0 0 C1.52947266 0.43119141 1.52947266 0.43119141 3.08984375 0.87109375 C16.64010445 4.96345436 30.06804597 11.9773941 41 21 C41 21.66 41 22.32 41 23 C41.54398438 23.22171875 42.08796875 23.4434375 42.6484375 23.671875 C61.28269206 34.19620482 73.14045977 59.72576145 79 79 C79.48146484 80.58167969 79.48146484 80.58167969 79.97265625 82.1953125 C82.17203298 91.01327874 82.27785188 99.69775329 82.3125 108.75 C82.31805908 109.98177979 82.32361816 111.21355957 82.3293457 112.48266602 C82.13188764 137.55308891 72.58016166 159.06571258 58 179 C57.34 179.99 56.68 180.98 56 182 C55.34 182 54.68 182 54 182 C53.75507813 182.56589844 53.51015625 183.13179687 53.2578125 183.71484375 C43.37315121 201.67300169 17.54185993 212.87777102 -1.13867188 218.47875977 C-32.44499357 227.21371412 -66.6519315 222.25732729 -95 207 C-101.51264619 203.22515412 -101.51264619 203.22515412 -104 201 C-104 200.34 -104 199.68 -104 199 C-104.66 198.814375 -105.32 198.62875 -106 198.4375 C-110.26905268 196.39191226 -113.74163706 193.42815357 -117 190 C-117 189.34 -117 188.68 -117 188 C-117.66 188 -118.32 188 -119 188 C-140.91125328 165.30123867 -150.62393147 136.03166482 -150.35131836 104.99169922 C-149.82209822 75.49182528 -137.40140757 49.92138347 -117 29 C-116.03513672 27.92492187 -116.03513672 27.92492187 -115.05078125 26.828125 C-96.93952482 7.18467985 -67.25331282 -3.36154364 -41.09765625 -4.8984375 C-26.9112159 -5.37190774 -13.57168563 -4.15642183 0 0 Z " fill="#20BD79" transform="translate(284,141)"/>
<path d="M0 0 C0.76612043 -0.00407553 1.53224087 -0.00815105 2.32157707 -0.01235008 C6.37950228 -0.03310534 10.43739477 -0.04745037 14.49536133 -0.05688477 C18.63811822 -0.06790892 22.78033215 -0.10229282 26.92289829 -0.14205647 C30.15157413 -0.16848113 33.38012567 -0.17659933 36.60890007 -0.18016624 C38.1336018 -0.18496818 39.6583005 -0.19639342 41.18289375 -0.21520424 C61.20559716 -0.44684509 80.84431213 4.42683069 95.93359375 18.23828125 C96.86751953 19.03492188 96.86751953 19.03492188 97.8203125 19.84765625 C109.15305217 30.13625586 115.17272946 45.27529784 116.05834961 60.36376953 C116.74477012 80.1352462 112.98845586 98.42334271 99.75 113.76953125 C88.11447717 126.1311107 71.06425416 134.39512951 53.95161819 135.34872627 C48.16286703 135.52104238 42.37247836 135.4677459 36.58203125 135.43359375 C34.71302442 135.42985774 32.84401561 135.42701355 30.9750061 135.42501831 C26.08586093 135.41742812 21.19683696 135.39781988 16.30773926 135.37561035 C11.30673868 135.35505188 6.30571827 135.34599532 1.3046875 135.3359375 C-8.48572997 135.31456913 -18.27605798 135.28048969 -28.06640625 135.23828125 C-28.06640625 134.57828125 -28.06640625 133.91828125 -28.06640625 133.23828125 C-27.14408203 132.96564453 -27.14408203 132.96564453 -26.203125 132.6875 C-24.99076172 132.31044922 -24.99076172 132.31044922 -23.75390625 131.92578125 C-22.95339844 131.68214844 -22.15289062 131.43851563 -21.328125 131.1875 C-18.1746174 129.86400717 -16.58564167 128.27675208 -15.06640625 125.23828125 C-14.96225803 123.69278249 -14.91989706 122.14292332 -14.90818787 120.59396362 C-14.89350464 119.12577682 -14.89350464 119.12577682 -14.87852478 117.62792969 C-14.87276932 116.55043457 -14.86701385 115.47293945 -14.86108398 114.36279297 C-14.85118439 113.23108673 -14.84128479 112.09938049 -14.83108521 110.93338013 C-14.79940029 107.17826456 -14.77468514 103.42313633 -14.75 99.66796875 C-14.72943651 97.07007511 -14.70844021 94.47218487 -14.68702698 91.8742981 C-14.63739978 85.72617495 -14.59215069 79.57803374 -14.54900461 73.42986214 C-14.49964656 66.43112714 -14.44472313 59.43243931 -14.38932502 52.43374991 C-14.27547923 38.03530466 -14.16864585 23.63681336 -14.06640625 9.23828125 C-16.12541787 9.54276036 -18.18391264 9.85073584 -20.2421875 10.16015625 C-21.96175659 10.41684082 -21.96175659 10.41684082 -23.71606445 10.67871094 C-36.84947741 12.87223877 -47.12146405 18.34602178 -55.06640625 29.23828125 C-56.60962237 31.86697989 -57.84413071 34.43723313 -59.06640625 37.23828125 C-60.05640625 37.23828125 -61.04640625 37.23828125 -62.06640625 37.23828125 C-59.54015607 26.82303926 -54.88768355 16.76235092 -46.06640625 10.23828125 C-30.93473729 1.49474612 -17.1359523 0.0776868 0 0 Z " fill="#FBFEFD" transform="translate(219.06640625,183.76171875)"/>
<path d="M0 0 C41.12437811 0 41.12437811 0 53 11 C53.77730469 11.71542969 53.77730469 11.71542969 54.5703125 12.4453125 C67.81367956 26.24337557 69.49992508 44.85671092 69.42211914 62.95214844 C69.05754821 80.15033368 64.70536578 96.02899744 52.56640625 108.8046875 C37.22449494 121.92820981 19.99224281 119 0 119 C0 79.73 0 40.46 0 0 Z " fill="#1DBC76" transform="translate(234,192)"/>
<path d="M0 0 C0.66 0.33 1.32 0.66 2 1 C-3.01829651 6.9219126 -8.16430096 12.86553567 -14 18 C-14.66 18 -15.32 18 -16 18 C-14.6415798 14.95667235 -13.11536976 12.87690849 -10.7421875 10.546875 C-10.11699219 9.928125 -9.49179688 9.309375 -8.84765625 8.671875 C-8.19667969 8.03765625 -7.54570312 7.4034375 -6.875 6.75 C-6.21628906 6.1003125 -5.55757812 5.450625 -4.87890625 4.78125 C-3.25703357 3.18288273 -1.6306719 1.58938103 0 0 Z " fill="#85DBB6" transform="translate(175,162)"/>
</svg>
